# xmcd CD database file
#
# Track frame offsets:
#	150
#	83722
#	112399
#	140329
#	185276
#
# Disc length: 2910 seconds
#
# Revision: 7
# Processed by: cddbd v1.5.1PL0 Copyright (c) Steve Scherf et al.
# Submitted via: CDex 1.51
#
DISCID=3f0b5c05
DTITLE=Vangelis - Soil Festivities
DYEAR=1984
DGENRE=New Age
TTITLE0=Movement 1
TTITLE1=Movement 2
TTITLE2=Movement 3
TTITLE3=Movement 4
TTITLE4=Movement 5
EXTD=YEAR: 1984
EXTT0=
EXTT1=
EXTT2=
EXTT3=
EXTT4=
PLAYORDER=
